<svg xmlns="http://www.w3.org/2000/svg" xmlns:xlink="http://www.w3.org/1999/xlink" version="1.1" width="20" height="20" viewBox="0 0 256 256" xml:space="preserve">
<g style="stroke: none; stroke-width: 0; stroke-dasharray: none; stroke-linecap: butt; stroke-linejoin: miter; stroke-miterlimit: 10; fill: none; fill-rule: nonzero; opacity: 1;" transform="translate(1.4065934065934016 1.4065934065934016) scale(2.81 2.81)" >
	<path d="M 82.635 63.235 L 34.722 26.697 c -0.47 -0.359 -1.11 -0.398 -1.62 -0.1 c -0.511 0.298 -0.791 0.874 -0.711 1.459 l 8.202 59.695 c 0.079 0.579 0.496 1.054 1.058 1.208 c 0.128 0.035 0.258 0.052 0.387 0.052 c 0.437 0 0.86 -0.197 1.141 -0.549 l 15.018 -18.83 l 23.783 -3.796 c 0.577 -0.092 1.043 -0.519 1.186 -1.085 C 83.309 64.185 83.1 63.588 82.635 63.235 z" style="stroke: none; stroke-width: 1; stroke-dasharray: none; stroke-linecap: butt; stroke-linejoin: miter; stroke-miterlimit: 10; fill: rgb(239,46,46); fill-rule: nonzero; opacity: 1;" transform=" matrix(1 0 0 1 0 0) " stroke-linecap="round" />
	<path d="M 33.837 15.714 c -1.074 0 -1.946 -0.871 -1.946 -1.946 V 1.946 C 31.891 0.871 32.762 0 33.837 0 s 1.946 0.871 1.946 1.946 v 11.823 C 35.782 14.843 34.911 15.714 33.837 15.714 z" style="stroke: none; stroke-width: 1; stroke-dasharray: none; stroke-linecap: butt; stroke-linejoin: miter; stroke-miterlimit: 10; fill: rgb(81,112,209); fill-rule: nonzero; opacity: 1;" transform=" matrix(1 0 0 1 0 0) " stroke-linecap="round" />
	<path d="M 19.666 29.885 H 7.843 c -1.074 0 -1.946 -0.871 -1.946 -1.946 s 0.871 -1.946 1.946 -1.946 h 11.823 c 1.074 0 1.946 0.871 1.946 1.946 S 20.741 29.885 19.666 29.885 z" style="stroke: none; stroke-width: 1; stroke-dasharray: none; stroke-linecap: butt; stroke-linejoin: miter; stroke-miterlimit: 10; fill: rgb(81,112,209); fill-rule: nonzero; opacity: 1;" transform=" matrix(1 0 0 1 0 0) " stroke-linecap="round" />
	<path d="M 59.83 29.885 H 48.007 c -1.074 0 -1.946 -0.871 -1.946 -1.946 s 0.871 -1.946 1.946 -1.946 H 59.83 c 1.074 0 1.946 0.871 1.946 1.946 S 60.904 29.885 59.83 29.885 z" style="stroke: none; stroke-width: 1; stroke-dasharray: none; stroke-linecap: butt; stroke-linejoin: miter; stroke-miterlimit: 10; fill: rgb(81,112,209); fill-rule: nonzero; opacity: 1;" transform=" matrix(1 0 0 1 0 0) " stroke-linecap="round" />
	<path d="M 43.856 19.864 c -0.498 0 -0.996 -0.19 -1.376 -0.57 c -0.76 -0.76 -0.76 -1.992 0 -2.751 l 8.36 -8.36 c 0.76 -0.76 1.991 -0.76 2.751 0 c 0.76 0.76 0.76 1.992 0 2.751 l -8.36 8.36 C 44.853 19.674 44.354 19.864 43.856 19.864 z" style="stroke: none; stroke-width: 1; stroke-dasharray: none; stroke-linecap: butt; stroke-linejoin: miter; stroke-miterlimit: 10; fill: rgb(81,112,209); fill-rule: nonzero; opacity: 1;" transform=" matrix(1 0 0 1 0 0) " stroke-linecap="round" />
	<path d="M 15.457 48.265 c -0.498 0 -0.996 -0.19 -1.376 -0.57 c -0.76 -0.76 -0.76 -1.992 0 -2.751 l 8.36 -8.36 c 0.759 -0.76 1.991 -0.76 2.751 0 c 0.76 0.76 0.76 1.992 0 2.751 l -8.36 8.36 C 16.453 48.075 15.955 48.265 15.457 48.265 z" style="stroke: none; stroke-width: 1; stroke-dasharray: none; stroke-linecap: butt; stroke-linejoin: miter; stroke-miterlimit: 10; fill: rgb(81,112,209); fill-rule: nonzero; opacity: 1;" transform=" matrix(1 0 0 1 0 0) " stroke-linecap="round" />
	<path d="M 23.817 19.864 c -0.498 0 -0.996 -0.19 -1.376 -0.57 l -8.36 -8.36 c -0.76 -0.76 -0.76 -1.992 0 -2.751 c 0.759 -0.76 1.992 -0.76 2.751 0 l 8.36 8.36 c 0.76 0.76 0.76 1.992 0 2.751 C 24.813 19.674 24.315 19.864 23.817 19.864 z" style="stroke: none; stroke-width: 1; stroke-dasharray: none; stroke-linecap: butt; stroke-linejoin: miter; stroke-miterlimit: 10; fill: rgb(81,112,209); fill-rule: nonzero; opacity: 1;" transform=" matrix(1 0 0 1 0 0) " stroke-linecap="round" />
	<path d="M 41.75 90 c -0.175 0 -0.351 -0.023 -0.524 -0.071 c -0.763 -0.211 -1.328 -0.855 -1.435 -1.638 l -8.339 -60.689 c -0.109 -0.794 0.271 -1.575 0.963 -1.978 c 0.692 -0.404 1.558 -0.349 2.196 0.136 l 48.713 37.146 c 0.629 0.48 0.912 1.288 0.719 2.056 c -0.193 0.767 -0.825 1.345 -1.606 1.47 l -23.991 3.83 L 43.297 89.255 C 42.916 89.733 42.343 90 41.75 90 z M 36.024 31.812 l 7.058 51.368 L 55.83 67.196 c 0.307 -0.385 0.748 -0.642 1.234 -0.72 l 20.19 -3.223 L 36.024 31.812 z" style="stroke: none; stroke-width: 1; stroke-dasharray: none; stroke-linecap: butt; stroke-linejoin: miter; stroke-miterlimit: 10; fill: rgb(81,112,209); fill-rule: nonzero; opacity: 1;" transform=" matrix(1 0 0 1 0 0) " stroke-linecap="round" />
</g>
</svg>